<?xml version="1.0" standalone="no"?>
<!DOCTYPE svg PUBLIC "-//W3C//DTD SVG 20010904//EN"
 "http://www.w3.org/TR/2001/REC-SVG-20010904/DTD/svg10.dtd">
<svg version="1.0" xmlns="http://www.w3.org/2000/svg"
 width="1024.000000pt" height="1024.000000pt" viewBox="0 0 1024.000000 1024.000000"
 preserveAspectRatio="xMidYMid meet">
<metadata>
Created by potrace 1.14, written by Peter Selinger 2001-2017
</metadata>
<g transform="translate(0.000000,1024.000000) scale(0.100000,-0.100000)"
fill="#000000" stroke="none">
<path d="M0 5120 l0 -5120 5120 0 5120 0 0 5120 0 5120 -5120 0 -5120 0 0
-5120z m6219 3013 c1235 -449 2249 -819 2253 -822 6 -5 -254 -736 -266 -749
-3 -2 -87 26 -187 62 -100 37 -186 63 -189 59 -4 -4 -29 -66 -55 -138 -110
-300 -237 -498 -454 -707 -138 -133 -280 -233 -446 -313 -101 -50 -155 -69
-390 -142 -227 -71 -444 -247 -566 -461 -53 -92 -68 -168 -69 -338 0 -242 53
-412 201 -640 135 -208 224 -422 271 -656 20 -98 23 -143 23 -338 0 -297 -14
-368 -140 -723 -10 -26 -15 -50 -13 -52 2 -2 84 -33 182 -69 99 -36 181 -67
183 -70 7 -6 -263 -740 -274 -743 -11 -4 -4493 1625 -4507 1638 -9 8 250 735
265 745 4 2 89 -25 189 -62 100 -36 183 -64 185 -62 2 2 22 55 45 118 108 295
260 535 459 723 211 198 420 318 732 421 184 60 239 85 346 158 141 95 274
241 348 382 43 82 60 199 52 361 -10 209 -61 354 -201 563 -184 276 -281 554
-306 875 -19 247 17 487 115 760 46 130 50 149 36 156 -9 5 -93 37 -188 71
l-172 62 18 47 c10 25 71 193 137 374 65 180 123 327 128 327 5 0 1020 -368
2255 -817z"/>
<path d="M4387 7788 c-84 -241 -102 -353 -94 -567 11 -282 78 -483 248 -741
188 -286 259 -512 259 -820 0 -236 -33 -381 -121 -535 -73 -129 -149 -227
-253 -330 -176 -173 -374 -289 -634 -371 -183 -58 -289 -106 -411 -188 -207
-138 -395 -356 -489 -566 -22 -49 -91 -232 -95 -253 -1 -5 81 -39 183 -76
l185 -67 125 115 c484 446 918 728 1224 796 167 37 295 5 407 -102 236 -224
394 -718 506 -1577 l8 -59 185 -67 c126 -46 187 -64 192 -56 22 39 99 297 113
379 19 113 21 331 5 433 -35 218 -104 393 -235 593 -164 250 -241 486 -252
776 -15 387 82 639 347 906 192 193 359 290 655 378 482 144 783 431 961 914
24 66 41 124 37 127 -10 9 -2960 1082 -2989 1088 -19 3 -26 -10 -67 -130z"/>
</g>
</svg>
